<?xml version="1.0" standalone="no"?>
<!DOCTYPE svg PUBLIC "-//W3C//DTD SVG 20010904//EN"
 "http://www.w3.org/TR/2001/REC-SVG-20010904/DTD/svg10.dtd">
<svg version="1.0" xmlns="http://www.w3.org/2000/svg"
 width="1024.000000pt" height="1024.000000pt" viewBox="0 0 1024.000000 1024.000000"
 preserveAspectRatio="xMidYMid meet">

<g transform="translate(0.000000,1024.000000) scale(0.100000,-0.100000)"
fill="#000000" stroke="none">
<path d="M6269 7665 c-16 -9 -52 -52 -224 -265 -16 -21 -77 -95 -135 -165 -58
-71 -147 -181 -198 -244 -52 -64 -99 -119 -107 -123 -9 -5 -42 29 -105 107
-50 63 -101 122 -113 130 -18 13 -109 15 -649 15 -384 0 -628 -4 -628 -9 0 -6
30 -45 68 -89 58 -68 157 -188 541 -656 131 -159 204 -248 307 -370 54 -65
110 -133 124 -150 50 -62 313 -383 377 -459 36 -43 71 -77 77 -75 7 2 79 86
161 188 82 102 160 199 174 216 14 17 33 40 41 50 9 10 130 160 270 333 140
172 287 353 325 402 39 48 115 143 170 210 55 67 141 172 190 233 50 62 135
167 190 235 55 68 109 135 120 150 29 39 148 185 155 191 10 8 120 147 120
151 0 9 -1235 3 -1251 -6z"/>
<path d="M7659 7368 c-24 -29 -62 -75 -83 -103 -22 -27 -118 -144 -214 -259
-171 -205 -192 -229 -262 -310 -20 -23 -56 -66 -82 -96 -26 -30 -59 -68 -73
-85 -28 -32 -68 -78 -190 -220 -43 -49 -98 -114 -124 -144 -25 -29 -49 -59
-53 -65 -4 -6 -8 -469 -8 -1028 l0 -1017 73 -88 c40 -48 140 -168 222 -267 83
-98 164 -195 180 -216 17 -21 64 -77 105 -126 41 -48 86 -102 100 -120 37 -46
430 -516 447 -534 12 -13 14 295 12 2358 -2 1304 -4 2372 -4 2372 -1 0 -22
-23 -46 -52z"/>
<path d="M2210 7147 c0 -5 55 -75 123 -156 120 -145 175 -211 332 -401 85
-103 304 -364 476 -570 58 -69 216 -258 351 -420 135 -162 301 -360 368 -440
67 -80 268 -320 447 -535 179 -214 335 -401 347 -415 12 -14 50 -61 86 -105
35 -44 67 -82 70 -85 3 -3 25 -30 50 -60 25 -30 47 -57 51 -60 3 -3 82 -97
176 -210 94 -113 199 -239 234 -280 66 -78 267 -317 403 -480 44 -52 82 -97
86 -100 3 -3 23 -27 45 -55 22 -27 68 -85 104 -127 l64 -78 679 0 c424 0 678
4 676 9 -1 6 -39 52 -83 102 -44 51 -131 154 -193 228 -63 75 -123 147 -135
161 -44 52 -328 391 -456 545 -73 88 -161 194 -196 235 -35 41 -166 199 -291
350 -125 151 -231 277 -234 280 -4 3 -76 88 -161 190 -85 102 -278 334 -429
514 -151 181 -286 343 -300 361 -14 18 -44 55 -67 82 -22 26 -78 93 -124 149
-82 98 -203 243 -473 564 -212 253 -231 275 -237 280 -3 3 -32 39 -64 80 -33
41 -94 116 -135 165 -42 50 -105 126 -140 170 -36 44 -72 88 -80 97 -14 15
-72 17 -693 20 -372 2 -677 -1 -677 -5z"/>
<path d="M3708 4448 c-24 -29 -95 -116 -158 -193 -63 -77 -189 -230 -280 -340
-91 -110 -177 -214 -190 -231 -46 -58 -194 -239 -200 -244 -3 -3 -32 -38 -65
-79 -33 -41 -93 -113 -132 -160 -40 -46 -73 -88 -73 -93 0 -4 279 -8 620 -8
577 0 621 1 638 18 9 9 39 46 67 82 54 71 178 226 290 360 38 47 92 113 118
147 l48 63 -208 243 c-114 133 -253 298 -308 365 -55 67 -105 122 -111 122 -7
0 -32 -24 -56 -52z"/>
</g>
</svg>
